<svg xmlns="http://www.w3.org/2000/svg" width="256" height="256" viewBox="0 0 96 96"><rect width="96" height="96" fill="#DDE7E4"/><circle cx="77" cy="17" r="19" fill="#fff" opacity=".24"/><path d="M10 96c1-22 12-29 28-32h20c17 3 28 13 29 32" fill="#C77B56"/><path d="M39 58v13l9 9 10-9V58" fill="#AC7251"/><path d="M39 66l9 14-12 9-7-20m29-3L48 80l13 9 7-20" fill="#fff" opacity=".82"/><path d="M26 48C17 30 31 12 45 15c19-8 34 13 25 35l-5-19c-11 7-17-5-24 1l-8 18Z" fill="#252D2B"/><ellipse cx="29" cy="47" rx="5" ry="7" fill="#AC7251"/><ellipse cx="68" cy="47" rx="5" ry="7" fill="#AC7251"/><path d="M29 36q1-13 20-13t19 13v16c0 13-11 20-19 20S29 64 29 51Z" fill="#AC7251"/><path d="M29 38c1-22 30-24 38-7-12 2-20-3-25-6-1 7-7 11-13 13" fill="#252D2B"/><path d="M36 41q4-2 8 0m10 0q4-2 8 0" stroke="#252D2B" stroke-width="2" fill="none" stroke-linecap="round"/><circle cx="40" cy="46" r="1.6" fill="#26362D"/><circle cx="58" cy="46" r="1.6" fill="#26362D"/><path d="m49 46-2 8h4" fill="none" stroke="#8A5C47" stroke-width="1.4" opacity=".6" stroke-linecap="round"/><path d="M42 60q7 4 14-1" fill="none" stroke="#784E40" stroke-width="1.6" stroke-linecap="round"/></svg>