<svg xmlns="http://www.w3.org/2000/svg" width="256" height="256" viewBox="0 0 96 96"><rect width="96" height="96" fill="#E6DFD0"/><circle cx="77" cy="17" r="19" fill="#fff" opacity=".24"/><path d="M10 96c1-22 12-29 28-32h20c17 3 28 13 29 32" fill="#5B657B"/><path d="M39 58v13l9 9 10-9V58" fill="#D9AC87"/><path d="M39 66l9 14-12 9-7-20m29-3L48 80l13 9 7-20" fill="#fff" opacity=".82"/><path d="M25 44c-4-24 17-32 34-24 15 4 15 20 10 28l-4-18c-10 4-25 3-30 0l-3 16Z" fill="#DAD6CA"/><ellipse cx="29" cy="47" rx="5" ry="7" fill="#D9AC87"/><ellipse cx="68" cy="47" rx="5" ry="7" fill="#D9AC87"/><path d="M29 36q1-13 20-13t19 13v16c0 13-11 20-19 20S29 64 29 51Z" fill="#D9AC87"/><path d="M29 38c1-22 30-24 38-7-12 2-20-3-25-6-1 7-7 11-13 13" fill="#DAD6CA"/><path d="M36 41q4-2 8 0m10 0q4-2 8 0" stroke="#DAD6CA" stroke-width="2" fill="none" stroke-linecap="round"/><circle cx="40" cy="46" r="1.6" fill="#26362D"/><circle cx="58" cy="46" r="1.6" fill="#26362D"/><path d="m49 46-2 8h4" fill="none" stroke="#8A5C47" stroke-width="1.4" opacity=".6" stroke-linecap="round"/><path d="M42 60q7 4 14-1" fill="none" stroke="#784E40" stroke-width="1.6" stroke-linecap="round"/><g fill="none" stroke="#35443B" stroke-width="1.7"><rect x="32" y="41" width="15" height="11" rx="4"/><rect x="51" y="41" width="15" height="11" rx="4"/><path d="M47 45h4M29 43h3m34 0h3"/></g></svg>